# xmcd
#
# Track frame offsets: 
#        150
#        12625
#        32565
#        52597
#        67892
#        92867
#        117335
#        136462
#        155527
#        178880
#        194925
#        216457
#        239007
#        257257
#        278682
#        297732
#        305330
#        327845
#
# Disc length: 4652 seconds
#
# Revision: 1
# Processed by: cddbd v1.5.2PL0 Copyright (c) Steve Scherf et al.
# Submitted via: ExactAudioCopy v1.3
#
DISCID=15122a12
DTITLE=Mary J. Blige - No More Drama (Japan)
DYEAR=2001
DGENRE=R&B
TTITLE0=Love
TTITLE1=Family Affair
TTITLE2=Steal Away
TTITLE3=Crazy Games
TTITLE4=PMS
TTITLE5=No More Drama
TTITLE6=Keep It Moving
TTITLE7=Destiny
TTITLE8=Where I've Been (feat. EVE)
TTITLE9=Beatiful Day
TTITLE10=Dance For Me
TTITLE11=Flying Away
TTITLE12=Never Been
TTITLE13=2 U
TTITLE14=In The Meantime
TTITLE15=Forever No More (Poem)
TTITLE16=Testimony
TTITLE17=Girl From Yesterday
EXTD=YEAR: 2001
EXTT0=
EXTT1=
EXTT2=
EXTT3=
EXTT4=
EXTT5=
EXTT6=
EXTT7=
EXTT8=
EXTT9=
EXTT10=
EXTT11=
EXTT12=
EXTT13=
EXTT14=
EXTT15=
EXTT16=
EXTT17=
PLAYORDER=
